<svg id="Layer_1" data-name="Layer 1" xmlns="http://www.w3.org/2000/svg" xmlns:xlink="http://www.w3.org/1999/xlink" viewBox="0 0 156.11 156.11">
  <defs>
    <style>
      .cls-1 {
        fill: url(#linear-gradient);
      }

      .cls-2 {
        fill: url(#linear-gradient-2);
      }

      .cls-3 {
        fill: url(#linear-gradient-3);
      }

      .cls-4 {
        fill: url(#linear-gradient-4);
      }
    </style>
    <linearGradient id="linear-gradient" x1="96.95" y1="172.39" x2="253.05" y2="172.39" gradientUnits="userSpaceOnUse">
      <stop offset="0" stop-color="#3eab49"/>
      <stop offset="1" stop-color="#95c13d"/>
    </linearGradient>
    <linearGradient id="linear-gradient-2" x1="174.95" y1="258.45" x2="175" y2="258.45" xlink:href="#linear-gradient"/>
    <linearGradient id="linear-gradient-3" x1="182.99" y1="156.68" x2="182.99" y2="218.63" gradientUnits="userSpaceOnUse">
      <stop offset="0.24" stop-color="#8ec641"/>
      <stop offset="1" stop-color="#006b36"/>
    </linearGradient>
    <linearGradient id="linear-gradient-4" x1="96.95" y1="180.39" x2="182.92" y2="180.39" gradientUnits="userSpaceOnUse">
      <stop offset="0" stop-color="#3eab49"/>
      <stop offset="1" stop-color="#006b36"/>
    </linearGradient>
  </defs>
  <title>green_logoOnly</title>
  <g>
    <path class="cls-1" d="M175,102.34H96.95S113.4,116,135.14,140.15H175a40.25,40.25,0,0,1,37.59,54.63A116.39,116.39,0,0,1,221.31,226a117.67,117.67,0,0,1,1,16.4A78,78,0,0,0,175,102.34Z" transform="translate(-96.95 -102.34)"/>
    <path class="cls-2" d="M174.95,258.45h0Z" transform="translate(-96.95 -102.34)"/>
    <path class="cls-3" d="M207.68,219.94a94.76,94.76,0,0,0-49.38-63.25,94.53,94.53,0,0,1,21.91,41.54v0a95.87,95.87,0,0,1,2.65,21.66" transform="translate(-96.95 -102.34)"/>
    <path class="cls-4" d="M182.85,219.85a40.19,40.19,0,0,1-48.1-39.46V140.15h0.39C113.4,116,96.95,102.34,96.95,102.34v78.06a78,78,0,0,0,76.94,78l1.12,0a77.7,77.7,0,0,0,34.68-8.13,95.57,95.57,0,0,0-2-30.38" transform="translate(-96.95 -102.34)"/>
  </g>
</svg>
